<?xml version="1.0" encoding="UTF-8" standalone="no"?> <svg xmlns="http://www.w3.org/2000/svg" viewBox="0 0 64 64"><title>1</title><g id="Layer_26" data-name="Layer 26"><path d="M54.67,2H9.33A7.34,7.34,0,0,0,2,9.33V54.67A7.34,7.34,0,0,0,9.33,62H54.67A7.34,7.34,0,0,0,62,54.67V9.33A7.34,7.34,0,0,0,54.67,2ZM58,54.67A3.34,3.34,0,0,1,54.67,58H9.33A3.34,3.34,0,0,1,6,54.67V9.33A3.34,3.34,0,0,1,9.33,6H54.67A3.34,3.34,0,0,1,58,9.33Z"/><path d="M14.83,43.21h0a6,6,0,0,0-.62.1,6,6,0,0,0-5,5.87,5.83,5.83,0,0,0,5.61,5.93h.28a6.07,6.07,0,0,0,6-6,5.84,5.84,0,0,0-6.32-5.92Zm1.71,7.3a2,2,0,0,1-1.55.6,1.82,1.82,0,0,1-1.23-.53,1.86,1.86,0,0,1-.54-1.35,2.07,2.07,0,0,1,1.93-2h.16a1.84,1.84,0,0,1,1.84,1.89A2.05,2.05,0,0,1,16.54,50.51Z"/><path d="M15,34.5a2,2,0,1,0,.14,4A10.28,10.28,0,0,1,25.85,49a2,2,0,0,0,2,2h0a2,2,0,0,0,2-2A14.28,14.28,0,0,0,15,34.5Z"/><path d="M15,26.92a2,2,0,1,0,.14,4,17.62,17.62,0,0,1,18.29,18,2,2,0,0,0,2,2h0a2,2,0,0,0,2-2A21.63,21.63,0,0,0,15,26.92Z"/><path d="M15.08,18.81a2,2,0,0,0,.05,4h.05a25.51,25.51,0,0,1,26.36,26,2,2,0,0,0,2,2h0a2,2,0,0,0,2-2,29.51,29.51,0,0,0-30.46-30Z"/></g></svg>