<?xml version="1.0" encoding="utf-8"?>
<!-- Generator: Adobe Illustrator 21.1.0, SVG Export Plug-In . SVG Version: 6.00 Build 0)  -->
<svg version="1.1" id="Layer_1" xmlns="http://www.w3.org/2000/svg" xmlns:xlink="http://www.w3.org/1999/xlink" x="0px" y="0px"
	 viewBox="0 0 186 69" style="enable-background:new 0 0 186 69;" xml:space="preserve">
<style type="text/css">
	.st0{fill-rule:evenodd;clip-rule:evenodd;fill:#FCB823;}
	.st1{fill:#FFFFFF;}
</style>
<g>
	<path class="st0" d="M121.6,48.3V12.7c0-12.1,12.7-14.7,21.8-11.3v6.8c-6.2-2.5-13.2-2-13.2,5.9h10.1v6.8h-10.1v27.3L121.6,48.3z"
		/>
	<path class="st0" d="M161.9,8.8h6.3l1.3,5.3h7.9v6.8h-6.9v15.8c0,3.2,1.4,4.7,4.1,4.7h4.3v6.8h-8.5c-5.7,0-8.5-3-8.5-9.1V8.8z"/>
	<rect x="146.8" y="14.1" class="st0" width="8.5" height="34"/>
	<rect x="146.8" y="1.8" class="st0" width="8.5" height="7"/>
	<path class="st0" d="M186,48.2c-7.5,11.8-20.7,19.7-35.8,19.7c-15.1,0-28.3-7.9-35.8-19.7c8.8,8.1,21.6,13.2,35.8,13.2
		C164.4,61.4,177.2,56.3,186,48.2"/>
	<path class="st1" d="M1.1,40.3v-4.6c2.5,1,5.3,1.5,8.5,1.5c2.4,0,3.6-0.8,3.6-2.3c0-1.4-0.8-2.1-2.4-2.1h-4C2.2,32.7,0,30.5,0,26
		c0-4.6,3.3-7,9.9-7c2.8,0,5.4,0.4,7.9,1.3v4.6c-2.5-1-5.1-1.5-8-1.5c-3,0-4.5,0.8-4.5,2.3c0,1.4,0.9,2.1,2.6,2.1h3.6
		c4.9,0,7.4,2.2,7.4,6.8c0,4.6-3.1,7-9.4,7C6.3,41.6,3.5,41.2,1.1,40.3 M22.7,41.4V19.2H27l0.7,2.8c2.5-1.9,5.1-2.8,7.6-2.8
		c2.8,0,4.8,1,5.9,3c2.8-2,5.5-3,8-3c4.7,0,7,2.8,7,8.4v13.7h-5.6v-14c0-2.5-1-3.7-3.1-3.7c-1.7,0-3.4,1-5.2,2.9v14.8h-5.6V27.5
		c0-2.5-1-3.8-3.1-3.8c-1.8,0-3.5,1-5.3,2.9v14.8H22.7z M60.2,34.5c0-4.5,3.2-6.8,9.6-6.8c1.9,0,3.6,0.1,5.2,0.4v-1.5
		c0-2-1.9-3-5.8-3c-2.4,0-4.8,0.4-7.2,1.1v-4.4c2.4-0.7,4.8-1.1,7.2-1.1c7.6,0,11.4,2.4,11.4,7.3v14.9h-2.8l-2.4-1.6
		c-1.9,1-4,1.6-6.2,1.6C63.2,41.4,60.2,39.1,60.2,34.5z M75,32.3c-1.4-0.3-3.1-0.4-5.2-0.4c-2.7,0-4,0.8-4,2.5
		c0,1.7,1.1,2.5,3.4,2.5c2.3,0,4.2-0.6,5.8-1.7V32.3z M86,41.4V19.2h4.3l0.7,2.8c1.9-1.9,4-2.8,6.2-2.8v4.5c-2.1,0-4,0.9-5.6,2.8
		v14.8H86z M100.7,15.6h4.1l0.9,3.6h5.1v4.4h-4.5v10.2c0,2.1,0.9,3.1,2.7,3.1h1.9v4.4h-4.6c-3.7,0-5.6-2-5.6-6V15.6z"/>
	<path class="st1" d="M90.5,58.7v1h1.1v-1H90.5z M86.9,57.1h1.9c0-0.6-0.3-1-0.9-1C87.3,56.2,87,56.5,86.9,57.1z M88,55.3
		c1.5,0,2.1,0.9,1.8,2.7h-2.9c0,0.6,0.5,0.9,1.5,0.9c0.5,0,0.9,0,1.4-0.1v0.9c-0.4,0.1-0.9,0.1-1.5,0.1c-1.6,0-2.4-0.8-2.4-2.3
		C85.8,56,86.6,55.3,88,55.3z M83.3,54.6h0.8l0.2,0.7h1v0.9h-0.9v2.1c0,0.4,0.2,0.6,0.5,0.6h0.4v0.9h-0.9c-0.7,0-1.1-0.4-1.1-1.2
		V54.6z M78.1,59.7v-4.5H79l0.1,0.6c0.5-0.4,1.1-0.6,1.6-0.6c1,0,1.5,0.6,1.5,1.7v2.8h-1.1v-2.8c0-0.5-0.2-0.7-0.7-0.7
		c-0.4,0-0.8,0.2-1.2,0.6v3H78.1z M74.4,57.1h1.9c0-0.6-0.3-1-0.9-1C74.8,56.2,74.5,56.5,74.4,57.1z M75.5,55.3
		c1.5,0,2.1,0.9,1.8,2.7h-2.9c0,0.6,0.5,0.9,1.5,0.9c0.4,0,0.9,0,1.4-0.1v0.9c-0.4,0.1-0.9,0.1-1.5,0.1c-1.6,0-2.4-0.8-2.4-2.3
		C73.3,56,74,55.3,75.5,55.3z M72.6,55.5c-0.7-0.1-1.4-0.2-1.9-0.2c-1.6,0-2.4,0.7-2.4,2.2c0,1.4,0.7,2.2,2.1,2.2
		c0.4,0,0.7-0.1,1.1-0.2c0,0.7-0.4,1-1.3,1c-0.5,0-1-0.1-1.5-0.2v0.9c0.4,0.1,0.9,0.2,1.5,0.2c1.6,0,2.4-0.5,2.4-1.6V55.5z
		 M71.5,58.5c-0.3,0.2-0.7,0.2-1.1,0.2c-0.7,0-1-0.4-1-1.2c0-0.9,0.4-1.3,1.2-1.3c0.4,0,0.7,0,0.9,0.1V58.5z M67.5,55.3v4.5h-1.1
		v-4.5H67.5z M67.5,53.7v0.9h-1.1v-0.9H67.5z M64.3,53.7v6.1h1.1v-6.1H64.3z M60.6,57.1h1.9c0-0.6-0.3-1-0.9-1
		C61,56.2,60.6,56.5,60.6,57.1z M61.7,55.3c1.5,0,2.1,0.9,1.8,2.7h-2.9c0,0.6,0.5,0.9,1.5,0.9c0.4,0,0.9,0,1.4-0.1v0.9
		c-0.4,0.1-0.9,0.1-1.5,0.1c-1.6,0-2.4-0.8-2.4-2.3C59.5,56,60.2,55.3,61.7,55.3z M56.9,54.6h0.8l0.2,0.7h1v0.9h-0.9v2.1
		c0,0.4,0.2,0.6,0.5,0.6H59v0.9H58c-0.7,0-1.1-0.4-1.1-1.2V54.6z M51.8,59.7v-4.5h0.9l0.1,0.6c0.5-0.4,1.1-0.6,1.6-0.6
		c1,0,1.5,0.6,1.5,1.7v2.8h-1.1v-2.8c0-0.5-0.2-0.7-0.7-0.7c-0.4,0-0.8,0.2-1.2,0.6v3H51.8z M50.8,55.3v4.5h-1.1v-4.5H50.8z
		 M50.8,53.7v0.9h-1.1v-0.9H50.8z M45.3,57.9c-0.3-0.1-0.6-0.1-1-0.1c-0.5,0-0.8,0.2-0.8,0.5c0,0.3,0.2,0.5,0.7,0.5
		c0.5,0,0.8-0.1,1.2-0.3V57.9z M42.3,58.4c0-0.9,0.6-1.4,1.9-1.4c0.4,0,0.7,0,1,0.1v-0.3c0-0.4-0.4-0.6-1.2-0.6
		c-0.5,0-1,0.1-1.5,0.2v-0.9c0.5-0.1,1-0.2,1.5-0.2c1.5,0,2.3,0.5,2.3,1.5v3h-0.6l-0.5-0.3c-0.4,0.2-0.8,0.3-1.2,0.3
		C42.9,59.7,42.3,59.3,42.3,58.4z M41.6,55.3v4.5h-1.1v-4.5H41.6z M41.6,53.7v0.9h-1.1v-0.9H41.6z M32.7,59.7v-4.5h0.9l0.1,0.6
		c0.5-0.4,1-0.6,1.5-0.6c0.6,0,1,0.2,1.2,0.6c0.6-0.4,1.1-0.6,1.6-0.6c0.9,0,1.4,0.6,1.4,1.7v2.8h-1.1v-2.8c0-0.5-0.2-0.7-0.6-0.7
		c-0.3,0-0.7,0.2-1.1,0.6v3h-1.1V57c0-0.5-0.2-0.8-0.6-0.8c-0.4,0-0.7,0.2-1.1,0.6v3H32.7z M29,57.1h1.9c0-0.6-0.3-1-0.9-1
		C29.4,56.2,29.1,56.5,29,57.1z M30.1,55.3c1.5,0,2.1,0.9,1.8,2.7H29c0,0.6,0.5,0.9,1.5,0.9c0.4,0,0.9,0,1.4-0.1v0.9
		c-0.4,0.1-0.9,0.1-1.5,0.1c-1.6,0-2.4-0.8-2.4-2.3C27.9,56,28.6,55.3,30.1,55.3z M27.2,59.5c-0.7,0.2-1.4,0.3-2.1,0.3
		c-1.5,0-2.3-0.8-2.3-2.3c0-1.4,0.7-2.1,2.2-2.1c0.4,0,0.7,0.1,1.1,0.2v-1.8h1.1V59.5z M26.1,56.5c-0.3-0.2-0.6-0.2-1-0.2
		c-0.7,0-1.1,0.4-1.1,1.2c0,0.9,0.4,1.4,1.1,1.4c0.4,0,0.8-0.1,1-0.2V56.5z M21,57.9c-0.3-0.1-0.6-0.1-1-0.1c-0.5,0-0.8,0.2-0.8,0.5
		c0,0.3,0.2,0.5,0.7,0.5c0.5,0,0.8-0.1,1.2-0.3V57.9z M18,58.4c0-0.9,0.6-1.4,1.9-1.4c0.4,0,0.7,0,1,0.1v-0.3c0-0.4-0.4-0.6-1.2-0.6
		c-0.5,0-1,0.1-1.5,0.2v-0.9c0.5-0.1,1-0.2,1.5-0.2c1.5,0,2.3,0.5,2.3,1.5v3h-0.6L21,59.4c-0.4,0.2-0.8,0.3-1.2,0.3
		C18.6,59.7,18,59.3,18,58.4z M17.5,58.7c-0.4,0.1-0.8,0.1-1.2,0.1c-0.9,0-1.4-0.5-1.4-1.4c0-0.8,0.5-1.3,1.4-1.3
		c0.4,0,0.8,0,1.2,0.1v-0.9c-0.4-0.1-0.8-0.1-1.2-0.1c-1.6,0-2.5,0.7-2.5,2.1c0,1.5,0.8,2.3,2.5,2.3c0.5,0,0.9,0,1.2-0.1V58.7z
		 M12,57.9c-0.3-0.1-0.6-0.1-1-0.1c-0.5,0-0.8,0.2-0.8,0.5c0,0.3,0.2,0.5,0.7,0.5c0.5,0,0.9-0.1,1.2-0.3V57.9z M9,58.4
		C9,57.4,9.7,57,11,57c0.4,0,0.7,0,1,0.1v-0.3c0-0.4-0.4-0.6-1.2-0.6c-0.5,0-1,0.1-1.5,0.2v-0.9c0.5-0.1,1-0.2,1.5-0.2
		c1.5,0,2.3,0.5,2.3,1.5v3h-0.6l-0.5-0.3c-0.4,0.2-0.8,0.3-1.2,0.3C9.6,59.7,9,59.3,9,58.4z M0,59.7l2.6-6.1h1.2l2.6,6.1H5.2
		l-0.8-1.7H2.5l0.4-1h1.3l-1-2.3l-2,4.9H0z"/>
</g>
</svg>
